<svg width="38" height="38" viewBox="0 0 38 38" fill="none" xmlns="http://www.w3.org/2000/svg">
<circle cx="19" cy="19" r="19" fill="#F69B39"/>
<path d="M23.8019 19.1369C25.6479 20.0094 27.2219 21.3675 28.3554 23.0658C29.4889 24.7641 30.1393 26.7387 30.2369 28.7781C30.2497 28.965 30.2252 29.1525 30.1646 29.3297C30.104 29.5069 30.0086 29.6703 29.884 29.8101C29.7595 29.95 29.6082 30.0635 29.4392 30.1441C29.2701 30.2247 29.0867 30.2707 28.8996 30.2795C28.7125 30.2882 28.5256 30.2595 28.3497 30.195C28.1739 30.1305 28.0127 30.0316 27.8757 29.904C27.7386 29.7763 27.6284 29.6226 27.5515 29.4518C27.4747 29.281 27.4327 29.0966 27.4281 28.9094C27.3259 26.7429 26.3933 24.6989 24.8239 23.2018C23.2545 21.7048 21.1689 20.8695 19 20.8695C16.8311 20.8695 14.7454 21.7048 13.1761 23.2018C11.6067 24.6989 10.6741 26.7429 10.5719 28.9094C10.5466 29.2761 10.3788 29.6184 10.1043 29.8628C9.8298 30.1073 9.47049 30.2346 9.1033 30.2175C8.73612 30.2003 8.39025 30.0401 8.13976 29.771C7.88927 29.502 7.75407 29.1456 7.76312 28.7781C7.86036 26.7388 8.51037 24.7643 9.64356 23.066C10.7768 21.3677 12.3505 20.0095 14.1962 19.1369C13.0131 18.1501 12.1627 16.8227 11.7607 15.3355C11.3587 13.8482 11.4246 12.2732 11.9494 10.8247C12.4742 9.3762 13.4324 8.12452 14.6938 7.23992C15.9552 6.35532 17.4584 5.88074 18.9991 5.88074C20.5397 5.88074 22.0429 6.35532 23.3043 7.23992C24.5657 8.12452 25.5239 9.3762 26.0487 10.8247C26.5736 12.2732 26.6394 13.8482 26.2374 15.3355C25.8354 16.8227 24.985 18.1501 23.8019 19.1369ZM23.6875 13.375C23.6875 12.1318 23.1936 10.9395 22.3146 10.0605C21.4355 9.18137 20.2432 8.68751 19 8.68751C17.7568 8.68751 16.5645 9.18137 15.6854 10.0605C14.8064 10.9395 14.3125 12.1318 14.3125 13.375C14.3125 14.6182 14.8064 15.8105 15.6854 16.6896C16.5645 17.5687 17.7568 18.0625 19 18.0625C20.2432 18.0625 21.4355 17.5687 22.3146 16.6896C23.1936 15.8105 23.6875 14.6182 23.6875 13.375Z" fill="white"/>
</svg>
