<svg width="24" height="24" viewBox="0 0 24 24" fill="none" xmlns="http://www.w3.org/2000/svg">
<path d="M12.0008 18.275L7.8508 20.775C7.66747 20.8917 7.4758 20.9417 7.2758 20.925C7.0758 20.9083 6.9008 20.8417 6.7508 20.725C6.6008 20.6083 6.48414 20.4627 6.4008 20.288C6.31747 20.1127 6.3008 19.9167 6.3508 19.7L7.4508 14.975L3.7758 11.8C3.60914 11.65 3.50514 11.479 3.4638 11.287C3.4218 11.0957 3.43414 10.9083 3.5008 10.725C3.56747 10.5417 3.66747 10.3917 3.8008 10.275C3.93414 10.1583 4.11747 10.0833 4.3508 10.05L9.2008 9.62501L11.0758 5.17501C11.1591 4.97501 11.2885 4.82501 11.4638 4.72501C11.6385 4.62501 11.8175 4.57501 12.0008 4.57501C12.1841 4.57501 12.3635 4.62501 12.5388 4.72501C12.7135 4.82501 12.8425 4.97501 12.9258 5.17501L14.8008 9.62501L19.6508 10.05C19.8841 10.0833 20.0675 10.1583 20.2008 10.275C20.3341 10.3917 20.4341 10.5417 20.5008 10.725C20.5675 10.9083 20.5801 11.0957 20.5388 11.287C20.4968 11.479 20.3925 11.65 20.2258 11.8L16.5508 14.975L17.6508 19.7C17.7008 19.9167 17.6841 20.1127 17.6008 20.288C17.5175 20.4627 17.4008 20.6083 17.2508 20.725C17.1008 20.8417 16.9258 20.9083 16.7258 20.925C16.5258 20.9417 16.3341 20.8917 16.1508 20.775L12.0008 18.275Z" fill="#7E7E7E"/>
</svg>
