<svg width="50" height="50" viewBox="0 0 50 50" fill="none" xmlns="http://www.w3.org/2000/svg">
<path d="M20.8332 28.3333L33.1248 16.0417C33.5068 15.6597 33.9929 15.4688 34.5832 15.4688C35.1734 15.4688 35.6596 15.6597 36.0415 16.0417C36.4234 16.4236 36.6144 16.9097 36.6144 17.5C36.6144 18.0903 36.4234 18.5764 36.0415 18.9583L22.2915 32.7083C21.8748 33.125 21.3887 33.3333 20.8332 33.3333C20.2776 33.3333 19.7915 33.125 19.3748 32.7083L13.9582 27.2917C13.5762 26.9097 13.3853 26.4236 13.3853 25.8333C13.3853 25.2431 13.5762 24.7569 13.9582 24.375C14.3401 23.9931 14.8262 23.8021 15.4165 23.8021C16.0068 23.8021 16.4929 23.9931 16.8748 24.375L20.8332 28.3333Z" fill="#F69B39"/>
</svg>
