<svg width="38" height="38" viewBox="0 0 38 38" fill="none" xmlns="http://www.w3.org/2000/svg">
<circle cx="19" cy="19" r="19" fill="#F69B39"/>
<path d="M23.8019 19.1369C25.6479 20.0094 27.2219 21.3675 28.3554 23.0658C29.4889 24.7641 30.1393 26.7387 30.2369 28.7781C30.2497 28.965 30.2252 29.1525 30.1646 29.3297C30.104 29.5069 30.0086 29.6703 29.884 29.8101C29.7595 29.95 29.6082 30.0635 29.4392 30.1441C29.2701 30.2247 29.0867 30.2707 28.8996 30.2795C28.7125 30.2882 28.5256 30.2595 28.3497 30.195C28.1739 30.1305 28.0127 30.0316 27.8757 29.904C27.7386 29.7763 27.6284 29.6226 27.5515 29.4518C27.4747 29.281 27.4327 29.0966 27.4281 28.9094C27.3259 26.7429 26.3933 24.6989 24.8239 23.2018C23.2545 21.7048 21.1689 20.8695 19 20.8695C16.8311 20.8695 14.7454 21.7048 13.1761 23.2018C11.6067 24.6989 10.6741 26.7429 10.5719 28.9094C10.5466 29.2761 10.3788 29.6184 10.1043 29.8628C9.8298 30.1073 9.47049 30.2346 9.1033 30.2175C8.73612 30.2003 8.39025 30.0401 8.13976 29.771C7.88927 29.502 7.75407 29.1456 7.76312 28.7781C7.86036 26.7388 8.51037 24.7643 9.64356 23.066C10.7768 21.3677 12.3505 20.0095 14.1962 19.1369C13.0131 18.1501 12.1627 16.8227 11.7607 15.3355C11.3587 13.8482 11.4246 12.2732 11.9494 10.8247C12.4742 9.3762 13.4324 8.12452 14.6938 7.23992C15.9552 6.35532 17.4584 5.88074 18.9991 5.88074C20.5397 5.88074 22.0429 6.35532 23.3043 7.23992C24.5657 8.12452 25.5239 9.3762 26.0487 10.8247C26.5736 12.2732 26.6394 13.8482 26.2374 15.3355C25.8354 16.8227 24.985 18.1501 23.8019 19.1369ZM23.6875 13.375C23.6875 12.1318 23.1936 10.9395 22.3146 10.0605C21.4355 9.18137 20.2432 8.68751 19 8.68751C17.7568 8.68751 16.5645 9.18137 15.6854 10.0605C14.8064 10.9395 14.3125 12.1318 14.3125 13.375C14.3125 14.6182 14.8064 15.8105 15.6854 16.6896C16.5645 17.5687 17.7568 18.0625 19 18.0625C20.2432 18.0625 21.4355 17.5687 22.3146 16.6896C23.1936 15.8105 23.6875 14.6182 23.6875 13.375Z" fill="white"/>
<circle cx="19" cy="19" r="19" fill="#F69B39"/>
<path d="M18.9999 6.8125C16.8833 6.81234 14.8031 7.36343 12.9642 8.41151C11.1253 9.4596 9.591 10.9685 8.51245 12.7898C7.4339 14.611 6.84827 16.6817 6.8132 18.7981C6.77813 20.9144 7.29484 23.0034 8.31245 24.8594L7.31636 28.375C7.22343 28.6954 7.21821 29.0348 7.30123 29.3578C7.38425 29.6809 7.55247 29.9758 7.78834 30.2116C8.0242 30.4475 8.31905 30.6157 8.64211 30.6987C8.96517 30.7817 9.3046 30.7765 9.62495 30.6836L13.1406 29.6875C14.7698 30.5805 16.5816 31.0891 18.4376 31.1746C20.2935 31.2601 22.1444 30.9201 23.8489 30.1806C25.5533 29.4412 27.0661 28.3219 28.2716 26.9082C29.4772 25.4945 30.3436 23.824 30.8046 22.0242C31.2656 20.2244 31.309 18.343 30.9316 16.5238C30.5541 14.7047 29.7657 12.9959 28.6267 11.5281C27.4876 10.0603 26.0281 8.87238 24.3596 8.05508C22.6911 7.23778 20.8579 6.81276 18.9999 6.8125ZM18.9999 29.3125C17.1488 29.3108 15.3318 28.8131 13.7382 27.8711C13.5912 27.7891 13.4261 27.7448 13.2578 27.7422C13.1706 27.7423 13.0839 27.7541 12.9999 27.7773L9.10932 28.8906L10.2226 25C10.2569 24.8769 10.2662 24.7482 10.2501 24.6214C10.234 24.4946 10.1928 24.3724 10.1289 24.2617C8.96794 22.3049 8.48678 20.0191 8.7603 17.7603C9.03383 15.5015 10.0467 13.3966 11.6411 11.7734C13.2355 10.1502 15.322 9.09992 17.5756 8.78607C19.8291 8.47223 22.1232 8.91248 24.1004 10.0382C26.0777 11.164 27.6271 12.9121 28.5074 15.0102C29.3877 17.1083 29.5494 19.4386 28.9674 21.6381C28.3853 23.8377 27.0921 25.783 25.2893 27.1711C23.4865 28.5592 21.2752 29.3121 18.9999 29.3125ZM20.4062 19C20.4062 19.2781 20.3237 19.55 20.1692 19.7813C20.0147 20.0125 19.7951 20.1928 19.5381 20.2992C19.2811 20.4056 18.9984 20.4335 18.7256 20.3792C18.4528 20.325 18.2022 20.191 18.0056 19.9944C17.8089 19.7977 17.675 19.5471 17.6207 19.2743C17.5665 19.0016 17.5943 18.7188 17.7007 18.4619C17.8072 18.2049 17.9874 17.9853 18.2187 17.8307C18.4499 17.6762 18.7218 17.5938 18.9999 17.5938C19.3729 17.5938 19.7306 17.7419 19.9943 18.0056C20.258 18.2694 20.4062 18.627 20.4062 19ZM14.7812 19C14.7812 19.2781 14.6987 19.55 14.5442 19.7813C14.3897 20.0125 14.1701 20.1928 13.9131 20.2992C13.6561 20.4056 13.3734 20.4335 13.1006 20.3792C12.8278 20.325 12.5772 20.191 12.3806 19.9944C12.1839 19.7977 12.05 19.5471 11.9957 19.2743C11.9415 19.0016 11.9693 18.7188 12.0757 18.4619C12.1822 18.2049 12.3624 17.9853 12.5937 17.8307C12.8249 17.6762 13.0968 17.5938 13.3749 17.5938C13.7479 17.5938 14.1056 17.7419 14.3693 18.0056C14.633 18.2694 14.7812 18.627 14.7812 19ZM26.0312 19C26.0312 19.2781 25.9487 19.55 25.7942 19.7813C25.6397 20.0125 25.4201 20.1928 25.1631 20.2992C24.9061 20.4056 24.6234 20.4335 24.3506 20.3792C24.0778 20.325 23.8272 20.191 23.6306 19.9944C23.4339 19.7977 23.3 19.5471 23.2457 19.2743C23.1915 19.0016 23.2193 18.7188 23.3257 18.4619C23.4322 18.2049 23.6124 17.9853 23.8437 17.8307C24.0749 17.6762 24.3468 17.5938 24.625 17.5938C24.9979 17.5938 25.3556 17.7419 25.6193 18.0056C25.883 18.2694 26.0312 18.627 26.0312 19Z" fill="white"/>
</svg>
