<svg width="24" height="24" viewBox="0 0 24 24" fill="none" xmlns="http://www.w3.org/2000/svg">
<path d="M11.9998 2.25C11.5311 2.25 11.0653 2.4075 10.6641 2.6955L9.42206 3.5625L7.99106 3.75H7.96781L7.94456 3.77325C7.47524 3.87924 7.04556 4.11607 6.70535 4.45628C6.36513 4.7965 6.1283 5.22618 6.02231 5.6955L5.99981 5.71875V5.742L5.81231 7.1955L4.94531 8.3205L4.92131 8.34375V8.367C4.39706 9.20475 4.37381 10.2863 4.94531 11.0858L5.83556 12.3278L6.07031 13.6178L3.65606 17.2965L2.88281 18.4455H6.46856L7.33556 20.4608L7.87481 21.75L8.64806 20.5778L11.0151 17.0153C11.6511 17.2762 12.3688 17.3003 12.9846 17.0153L15.3516 20.5778L16.1248 21.75L16.6641 20.4608L17.5311 18.4455H21.1168L20.3436 17.2965L17.9998 13.7347L18.1873 12.3285L19.0543 11.0865L19.0783 11.0633V11.04C19.6026 10.2023 19.6258 9.144 19.0543 8.3445L18.1873 7.10175L17.9061 5.6955H17.9293C17.9263 5.6775 17.9091 5.6655 17.9061 5.64825C17.7711 4.66725 16.9948 3.87075 16.0078 3.75H15.9838L14.5776 3.5625L13.3356 2.6955C12.9477 2.41134 12.4806 2.25557 11.9998 2.25ZM11.9998 3.77325C12.1723 3.77325 12.3426 3.82575 12.4686 3.91425L13.8043 4.875L13.9686 4.992L14.1561 5.016L15.7971 5.25H15.8196C16.1571 5.2875 16.3911 5.52225 16.4293 5.85975V5.90625L16.7346 7.5705L16.7571 7.73475L16.8748 7.875L17.8356 9.21075C18.0148 9.45975 18.0381 9.882 17.8123 10.242L16.7578 11.7188L16.7338 11.9062L16.4998 13.5472V13.5697C16.4873 13.687 16.4472 13.7995 16.3828 13.8983L16.3356 13.9222V13.9447C16.2241 14.0786 16.0642 14.163 15.8908 14.1795H15.8436L14.1328 14.4847L13.9453 14.5072L13.8043 14.625L12.4686 15.5858C12.2196 15.765 11.7741 15.7882 11.4141 15.5625L10.1953 14.625L10.0543 14.508L9.84356 14.484L8.20256 14.25H8.18006C8.07401 14.2406 7.97177 14.2059 7.88197 14.1487C7.79216 14.0916 7.71742 14.0136 7.66406 13.9215C7.61422 13.835 7.58234 13.7393 7.57031 13.6403V13.5938L7.26581 11.883L7.24181 11.6955L7.12481 11.5545L6.16406 10.2188C5.98481 9.96975 5.96156 9.52425 6.18731 9.16425L7.12481 7.9455L7.24181 7.8045L7.26506 7.59375L7.47656 6.02325C7.47956 6.012 7.49681 6.012 7.49981 6C7.54657 5.81946 7.64077 5.65471 7.77264 5.52283C7.90452 5.39096 8.06927 5.29676 8.24981 5.25C8.26181 5.247 8.26181 5.22975 8.27306 5.22675L9.84356 5.01525L10.0311 4.99275L10.1953 4.875L11.5311 3.91425C11.6571 3.8265 11.8273 3.77325 11.9998 3.77325ZM17.1793 15.1875L18.3283 16.9455H16.5223L16.3348 17.4142L15.8196 18.609L14.2258 16.1715L14.5768 15.9142L16.0543 15.6562V15.6795C16.0716 15.6765 16.0828 15.6593 16.1008 15.6562C16.4955 15.5993 16.8678 15.4374 17.1786 15.1875H17.1793ZM6.82031 15.2108C7.14598 15.5068 7.55511 15.6952 7.99181 15.75H8.01506L9.44531 15.9375L9.77306 16.1955L8.17931 18.609L7.66406 17.4142L7.47656 16.9455H5.67206L6.82031 15.2108Z" fill="#3C3C3C"/>
</svg>
