<svg width="38" height="38" viewBox="0 0 38 38" fill="none" xmlns="http://www.w3.org/2000/svg">
<circle cx="19" cy="19" r="19" fill="#F69B39"/>
<path d="M23.8019 19.1369C25.6479 20.0094 27.2219 21.3675 28.3554 23.0658C29.4889 24.7641 30.1393 26.7387 30.2369 28.7781C30.2497 28.965 30.2252 29.1525 30.1646 29.3297C30.104 29.5069 30.0086 29.6703 29.884 29.8101C29.7595 29.95 29.6082 30.0635 29.4392 30.1441C29.2701 30.2247 29.0867 30.2707 28.8996 30.2795C28.7125 30.2882 28.5256 30.2595 28.3497 30.195C28.1739 30.1305 28.0127 30.0316 27.8757 29.904C27.7386 29.7763 27.6284 29.6226 27.5515 29.4518C27.4747 29.281 27.4327 29.0966 27.4281 28.9094C27.3259 26.7429 26.3933 24.6989 24.8239 23.2018C23.2545 21.7048 21.1689 20.8695 19 20.8695C16.8311 20.8695 14.7454 21.7048 13.1761 23.2018C11.6067 24.6989 10.6741 26.7429 10.5719 28.9094C10.5466 29.2761 10.3788 29.6184 10.1043 29.8628C9.8298 30.1073 9.47049 30.2346 9.1033 30.2175C8.73612 30.2003 8.39025 30.0401 8.13976 29.771C7.88927 29.502 7.75407 29.1456 7.76312 28.7781C7.86036 26.7388 8.51037 24.7643 9.64356 23.066C10.7768 21.3677 12.3505 20.0095 14.1962 19.1369C13.0131 18.1501 12.1627 16.8227 11.7607 15.3355C11.3587 13.8482 11.4246 12.2732 11.9494 10.8247C12.4742 9.3762 13.4324 8.12452 14.6938 7.23992C15.9552 6.35532 17.4584 5.88074 18.9991 5.88074C20.5397 5.88074 22.0429 6.35532 23.3043 7.23992C24.5657 8.12452 25.5239 9.3762 26.0487 10.8247C26.5736 12.2732 26.6394 13.8482 26.2374 15.3355C25.8354 16.8227 24.985 18.1501 23.8019 19.1369ZM23.6875 13.375C23.6875 12.1318 23.1936 10.9395 22.3146 10.0605C21.4355 9.18137 20.2432 8.68751 19 8.68751C17.7568 8.68751 16.5645 9.18137 15.6854 10.0605C14.8064 10.9395 14.3125 12.1318 14.3125 13.375C14.3125 14.6182 14.8064 15.8105 15.6854 16.6896C16.5645 17.5687 17.7568 18.0625 19 18.0625C20.2432 18.0625 21.4355 17.5687 22.3146 16.6896C23.1936 15.8105 23.6875 14.6182 23.6875 13.375Z" fill="white"/>
<circle cx="19" cy="19" r="19" fill="#F69B39"/>
<path d="M19 6C16.4288 6 13.9154 6.76244 11.7776 8.1909C9.63975 9.61935 7.97351 11.6497 6.98957 14.0251C6.00563 16.4006 5.74819 19.0144 6.2498 21.5362C6.75141 24.0579 7.98953 26.3743 9.80762 28.1924C11.6257 30.0105 13.9421 31.2486 16.4638 31.7502C18.9856 32.2518 21.5995 31.9944 23.9749 31.0104C26.3503 30.0265 28.3807 28.3603 29.8091 26.2224C31.2376 24.0846 32 21.5712 32 19C31.9934 15.5542 30.6216 12.2515 28.1851 9.81491C25.7486 7.37837 22.4458 6.00661 19 6ZM19 30C16.8244 30 14.6977 29.3549 12.8887 28.1462C11.0798 26.9375 9.66989 25.2195 8.83733 23.2095C8.00477 21.1995 7.78693 18.9878 8.21137 16.854C8.63581 14.7202 9.68345 12.7602 11.2218 11.2218C12.7602 9.68345 14.7202 8.6358 16.854 8.21136C18.9878 7.78692 21.1995 8.00476 23.2095 8.83733C25.2195 9.66989 26.9375 11.0798 28.1462 12.8887C29.3549 14.6977 30 16.8244 30 19C29.9967 21.9164 28.8367 24.7123 26.7745 26.7745C24.7123 28.8367 21.9164 29.9967 19 30ZM24 21.5C23.9967 22.4272 23.6269 23.3156 22.9712 23.9712C22.3156 24.6269 21.4272 24.9967 20.5 25H20V26C20 26.2652 19.8946 26.5196 19.7071 26.7071C19.5196 26.8946 19.2652 27 19 27C18.7348 27 18.4804 26.8946 18.2929 26.7071C18.1054 26.5196 18 26.2652 18 26V25H16C15.7348 25 15.4804 24.8946 15.2929 24.7071C15.1054 24.5196 15 24.2652 15 24C15 23.7348 15.1054 23.4804 15.2929 23.2929C15.4804 23.1054 15.7348 23 16 23H20.5C20.8978 23 21.2794 22.842 21.5607 22.5607C21.842 22.2794 22 21.8978 22 21.5C22 21.1022 21.842 20.7206 21.5607 20.4393C21.2794 20.158 20.8978 20 20.5 20H17.5C16.5717 20 15.6815 19.6313 15.0251 18.9749C14.3688 18.3185 14 17.4283 14 16.5C14 15.5717 14.3688 14.6815 15.0251 14.0251C15.6815 13.3687 16.5717 13 17.5 13H18V12C18 11.7348 18.1054 11.4804 18.2929 11.2929C18.4804 11.1054 18.7348 11 19 11C19.2652 11 19.5196 11.1054 19.7071 11.2929C19.8946 11.4804 20 11.7348 20 12V13H22C22.2652 13 22.5196 13.1054 22.7071 13.2929C22.8946 13.4804 23 13.7348 23 14C23 14.2652 22.8946 14.5196 22.7071 14.7071C22.5196 14.8946 22.2652 15 22 15H17.5C17.1022 15 16.7206 15.158 16.4393 15.4393C16.158 15.7206 16 16.1022 16 16.5C16 16.8978 16.158 17.2794 16.4393 17.5607C16.7206 17.842 17.1022 18 17.5 18H20.5C21.4272 18.0033 22.3156 18.3731 22.9712 19.0288C23.6269 19.6844 23.9967 20.5728 24 21.5Z" fill="white"/>
</svg>
