<svg width="60" height="60" viewBox="0 0 60 60" fill="none" xmlns="http://www.w3.org/2000/svg">
<path d="M10 52.5C8.625 52.5 7.44833 52.0108 6.47 51.0325C5.49 50.0525 5 48.875 5 47.5V20C5 18.625 5.49 17.4483 6.47 16.47C7.44833 15.49 8.625 15 10 15H20V10C20 8.625 20.49 7.4475 21.47 6.4675C22.4483 5.48917 23.625 5 25 5H35C36.375 5 37.5525 5.48917 38.5325 6.4675C39.5108 7.4475 40 8.625 40 10V15H50C51.375 15 52.5525 15.49 53.5325 16.47C54.5108 17.4483 55 18.625 55 20V47.5C55 48.875 54.5108 50.0525 53.5325 51.0325C52.5525 52.0108 51.375 52.5 50 52.5H10ZM10 47.5H50V20H10V47.5ZM25 15H35V10H25V15ZM10 47.5V20V47.5Z" fill="#2666CF"/>
</svg>
