<svg width="60" height="60" viewBox="0 0 60 60" fill="none" xmlns="http://www.w3.org/2000/svg">
<path d="M23.75 23.3125V36.6875C23.75 37.6875 24.1875 38.4167 25.0625 38.875C25.9375 39.3333 26.7917 39.2917 27.625 38.75L38 32.125C38.7917 31.6667 39.1875 30.9583 39.1875 30C39.1875 29.0417 38.7917 28.3333 38 27.875L27.625 21.25C26.7917 20.7083 25.9375 20.6667 25.0625 21.125C24.1875 21.5833 23.75 22.3125 23.75 23.3125ZM30 55C26.5417 55 23.2917 54.3433 20.25 53.03C17.2083 51.7183 14.5625 49.9375 12.3125 47.6875C10.0625 45.4375 8.28167 42.7917 6.97 39.75C5.65667 36.7083 5 33.4583 5 30C5 26.5417 5.65667 23.2917 6.97 20.25C8.28167 17.2083 10.0625 14.5625 12.3125 12.3125C14.5625 10.0625 17.2083 8.28083 20.25 6.9675C23.2917 5.65583 26.5417 5 30 5C33.4583 5 36.7083 5.65583 39.75 6.9675C42.7917 8.28083 45.4375 10.0625 47.6875 12.3125C49.9375 14.5625 51.7183 17.2083 53.03 20.25C54.3433 23.2917 55 26.5417 55 30C55 33.4583 54.3433 36.7083 53.03 39.75C51.7183 42.7917 49.9375 45.4375 47.6875 47.6875C45.4375 49.9375 42.7917 51.7183 39.75 53.03C36.7083 54.3433 33.4583 55 30 55ZM30 50C35.5417 50 40.2608 48.0525 44.1575 44.1575C48.0525 40.2608 50 35.5417 50 30C50 24.4583 48.0525 19.7392 44.1575 15.8425C40.2608 11.9475 35.5417 10 30 10C24.4583 10 19.74 11.9475 15.845 15.8425C11.9483 19.7392 10 24.4583 10 30C10 35.5417 11.9483 40.2608 15.845 44.1575C19.74 48.0525 24.4583 50 30 50Z" fill="#2666CF"/>
</svg>
